<svg width="156" height="56" viewBox="0 0 156 56" fill="none" xmlns="http://www.w3.org/2000/svg">
<path d="M33.724 44.5809C37.7426 40.5622 40.0003 35.1118 40.0003 29.4286C40.0003 23.7454 37.7426 18.2949 33.724 14.2763C29.7054 10.2576 24.2549 8 18.5717 8C12.8885 8 7.43807 10.2576 3.41943 14.2763L10.4905 21.3473C11.6063 22.4631 13.4081 22.4074 14.8276 21.7181C15.9836 21.1568 17.2622 20.8571 18.5717 20.8571C20.845 20.8571 23.0252 21.7602 24.6326 23.3677C26.2401 24.9751 27.1431 27.1553 27.1431 29.4286C27.1431 30.7381 26.8435 32.0167 26.2822 33.1727C25.5929 34.5922 25.5372 36.394 26.6529 37.5098L33.724 44.5809Z" fill="#E2E0DC"/>
<path d="M30 48H19.5098C17.9943 48 16.5408 47.398 15.4692 46.3263L1.67368 32.5308C0.60204 31.4592 0 30.0057 0 28.4902V18L30 48Z" fill="#E3E7FA"/>
<path d="M10.7143 47.9999H4.28571C1.91878 47.9999 0 46.0812 0 43.7142V37.2856L10.7143 47.9999Z" fill="#F7F6F5"/>
<path d="M53.2004 24.8V11.288H63.4244V14.144H56.4884V16.616H61.6484V19.304H56.4884V22.136H63.6884V24.8H53.2004ZM69.3149 22.064C69.7789 22.064 70.1309 22.064 70.3709 22.064C70.6269 22.064 70.8029 22.064 70.8989 22.064C71.5549 22.064 72.1309 22.008 72.6269 21.896C73.1389 21.784 73.5709 21.584 73.9229 21.296C74.2909 20.992 74.5629 20.576 74.7389 20.048C74.9309 19.52 75.0269 18.84 75.0269 18.008C75.0269 17.16 74.8589 16.456 74.5229 15.896C74.2029 15.32 73.7309 14.888 73.1069 14.6C72.4989 14.312 71.7629 14.168 70.8989 14.168H69.3149V22.064ZM78.6029 18.032C78.6029 19.808 78.2429 21.192 77.5229 22.184C76.8189 23.16 75.8109 23.84 74.4989 24.224C73.1869 24.608 71.6429 24.8 69.8669 24.8C69.5949 24.8 69.1549 24.8 68.5469 24.8C67.9549 24.8 67.1069 24.8 66.0029 24.8V11.288C67.1869 11.288 68.0589 11.288 68.6189 11.288C69.1949 11.288 69.6109 11.288 69.8669 11.288C71.6429 11.288 73.1869 11.544 74.4989 12.056C75.8109 12.552 76.8189 13.296 77.5229 14.288C78.2429 15.28 78.6029 16.528 78.6029 18.032ZM87.0029 25.136C84.9869 25.136 83.4589 24.608 82.4189 23.552C81.3949 22.48 80.8829 20.976 80.8829 19.04V11.288H84.4829V19.016C84.4829 19.688 84.5709 20.224 84.7469 20.624C84.9229 21.008 85.1389 21.296 85.3949 21.488C85.6669 21.68 85.9469 21.808 86.2349 21.872C86.5229 21.92 86.7789 21.944 87.0029 21.944C87.3709 21.944 87.7469 21.888 88.1309 21.776C88.5309 21.664 88.8669 21.4 89.1389 20.984C89.4109 20.568 89.5469 19.912 89.5469 19.016V11.288H93.1469V19.04C93.1469 21.008 92.6349 22.52 91.6109 23.576C90.6029 24.616 89.0669 25.136 87.0029 25.136ZM95.7451 24.8V11.288H99.1051V24.8H95.7451ZM95.7451 24.8V21.944H104.937V24.8H95.7451ZM108.913 24.368V11.72H112.249V24.368H108.913ZM107.161 24.8V21.944H113.977V24.8H107.161ZM107.161 14.144V11.288H113.977V14.144H107.161ZM125.906 11.288H129.41V24.8H122.978L120.458 12.752H120.41V24.8H116.93V11.288H122.882L125.858 23.336H125.906V11.288ZM131.927 24.8V11.288H142.151V14.144H135.215V16.616H140.375V19.304H135.215V22.136H142.415V24.8H131.927Z" fill="white"/>
<path d="M53.2333 43.8V33.6182H56.6737C57.4724 33.6182 58.1254 33.7624 58.6325 34.0508C59.1429 34.3358 59.5207 34.7219 59.766 35.2091C60.0113 35.6964 60.1339 36.2399 60.1339 36.8398C60.1339 37.4397 60.0113 37.9849 59.766 38.4755C59.524 38.966 59.1495 39.3571 58.6424 39.6488C58.1353 39.9371 57.4857 40.0813 56.6935 40.0813H54.2276V38.9875H56.6538C57.2007 38.9875 57.6398 38.8931 57.9712 38.7042C58.3027 38.5152 58.543 38.26 58.6921 37.9385C58.8446 37.6137 58.9208 37.2475 58.9208 36.8398C58.9208 36.4322 58.8446 36.0676 58.6921 35.7461C58.543 35.4246 58.301 35.1727 57.9663 34.9904C57.6315 34.8048 57.1874 34.712 56.6339 34.712H54.4663V43.8H53.2333ZM61.5632 34.712V33.6182H69.1996V34.712H65.9979V43.8H64.7649V34.712H61.5632ZM72.3354 33.6182V43.8H71.1025V33.6182H72.3354ZM74.2507 34.712V33.6182H81.8871V34.712H78.6854V43.8H77.4524V34.712H74.2507ZM87.7275 43.8V33.6182H88.9604V38.1523H94.3894V33.6182H95.6223V43.8H94.3894V39.2461H88.9604V43.8H87.7275ZM106.284 36.8H105.051C104.978 36.4454 104.85 36.1339 104.668 35.8654C104.489 35.5969 104.27 35.3715 104.012 35.1893C103.757 35.0036 103.473 34.8644 103.162 34.7716C102.85 34.6788 102.525 34.6324 102.187 34.6324C101.571 34.6324 101.012 34.7882 100.512 35.0998C100.015 35.4113 99.6187 35.8704 99.3237 36.4769C99.032 37.0834 98.8862 37.8275 98.8862 38.7091C98.8862 39.5908 99.032 40.3348 99.3237 40.9414C99.6187 41.5479 100.015 42.007 100.512 42.3185C101.012 42.6301 101.571 42.7858 102.187 42.7858C102.525 42.7858 102.85 42.7394 103.162 42.6466C103.473 42.5538 103.757 42.4163 104.012 42.234C104.27 42.0484 104.489 41.8214 104.668 41.5529C104.85 41.2811 104.978 40.9696 105.051 40.6182H106.284C106.191 41.1386 106.022 41.6043 105.777 42.0152C105.532 42.4262 105.227 42.7759 104.862 43.0643C104.497 43.3493 104.088 43.5664 103.634 43.7155C103.183 43.8647 102.701 43.9393 102.187 43.9393C101.319 43.9393 100.547 43.7271 99.8706 43.3029C99.1944 42.8786 98.6625 42.2754 98.2747 41.4932C97.8869 40.711 97.693 39.783 97.693 38.7091C97.693 37.6353 97.8869 36.7072 98.2747 35.925C98.6625 35.1429 99.1944 34.5396 99.8706 34.1154C100.547 33.6911 101.319 33.479 102.187 33.479C102.701 33.479 103.183 33.5536 103.634 33.7027C104.088 33.8519 104.497 34.0706 104.862 34.359C105.227 34.644 105.532 34.992 105.777 35.403C106.022 35.8107 106.191 36.2764 106.284 36.8ZM108.276 33.6182H109.748L113.208 42.0699H113.327L116.788 33.6182H118.259V43.8H117.106V36.0643H117.006L113.825 43.8H112.711L109.529 36.0643H109.43V43.8H108.276V33.6182Z" fill="white"/>
</svg>
